<?xml version="1.0" encoding="iso-8859-1"?>
<!-- Generator: Adobe Illustrator 19.0.0, SVG Export Plug-In . SVG Version: 6.00 Build 0)  -->
<svg version="1.1" id="Capa_1" xmlns="http://www.w3.org/2000/svg" xmlns:xlink="http://www.w3.org/1999/xlink" x="0px" y="0px"
	 viewBox="0 0 504.123 504.123" style="enable-background:new 0 0 504.123 504.123;" xml:space="preserve">
<circle style="fill:#E0E4E8;" cx="252.062" cy="252.062" r="252.062"/>
<rect x="153.6" y="7.877" style="fill:#FBBD5E;" width="196.135" height="111.852"/>
<path style="fill:#183651;" d="M350.523,127.606H153.6c-4.726,0-7.877-3.151-7.877-7.877V7.877c0-4.726,3.151-7.877,7.877-7.877
	h196.923c4.726,0,7.877,3.151,7.877,7.877v111.852C358.4,124.455,354.462,127.606,350.523,127.606z M161.477,111.852h181.169V15.754
	H161.477V111.852z"/>
<rect x="185.108" y="39.385" style="fill:#FFFFFF;" width="133.12" height="49.625"/>
<rect x="153.6" y="195.348" style="fill:#4FBF9F;" width="196.135" height="111.852"/>
<path style="fill:#183651;" d="M350.523,315.865H153.6c-4.726,0-7.877-3.151-7.877-7.877v-112.64c0-4.726,3.151-7.877,7.877-7.877
	h196.923c4.726,0,7.877,3.151,7.877,7.877V307.2C358.4,311.926,354.462,315.865,350.523,315.865z M161.477,300.111h181.169v-96.886
	H161.477V300.111z"/>
<rect x="185.108" y="226.855" style="fill:#FFFFFF;" width="133.12" height="49.625"/>
<rect x="153.6" y="384.394" style="fill:#F06151;" width="196.135" height="111.852"/>
<path style="fill:#183651;" d="M350.523,504.123H153.6c-4.726,0-7.877-3.151-7.877-7.877V384.394c0-4.726,3.151-7.877,7.877-7.877
	h196.923c4.726,0,7.877,3.151,7.877,7.877v111.852C358.4,500.972,354.462,504.123,350.523,504.123z M161.477,488.369h181.169
	v-96.098H161.477V488.369z"/>
<rect x="185.108" y="415.114" style="fill:#FFFFFF;" width="133.12" height="49.625"/>
<g>
	<path style="fill:#183651;" d="M75.618,95.311c-2.363-3.151-2.363-8.665,1.575-11.028L102.4,64.591L77.194,44.898
		c-3.151-2.363-3.938-7.877-1.575-11.028c2.363-3.151,7.877-3.938,11.028-1.575l33.083,25.994c2.363,0.788,3.151,3.151,3.151,5.514
		s-0.788,4.726-2.363,6.302L87.434,96.098C83.495,99.249,78.769,98.462,75.618,95.311z"/>
	<path style="fill:#183651;" d="M115.003,71.68H7.877C3.151,71.68,0,68.529,0,63.803s3.151-7.877,7.877-7.877h107.126
		c4.726,0,7.877,3.151,7.877,7.877S119.729,71.68,115.003,71.68z"/>
	<path style="fill:#183651;" d="M417.477,284.357l-33.083-25.994c-1.575-1.575-3.151-3.938-3.151-6.302s0.788-4.726,3.151-6.302
		l33.083-25.994c3.151-2.363,8.665-2.363,11.028,1.575c2.363,3.151,2.363,8.665-1.575,11.028l-25.206,19.692l25.206,19.692
		c3.151,2.363,3.938,7.877,1.575,11.028C425.354,285.932,420.628,286.72,417.477,284.357z"/>
	<path style="fill:#183651;" d="M496.246,259.938H389.12c-4.726,0-7.877-3.151-7.877-7.877s3.151-7.877,7.877-7.877h99.249V71.68
		h-88.222c-4.726,0-7.877-3.151-7.877-7.877s3.151-7.877,7.877-7.877h96.098c4.726,0,7.877,3.151,7.877,7.877v187.471
		C504.123,256,500.185,259.938,496.246,259.938z"/>
	<path style="fill:#183651;" d="M75.618,471.04c-2.363-3.151-2.363-8.665,1.575-11.028L102.4,440.32l-25.206-19.692
		c-3.151-2.363-3.938-7.877-1.575-11.028c2.363-3.151,7.877-3.938,11.028-1.575l33.083,25.994c1.575,1.575,3.151,3.938,3.151,6.302
		s-0.788,4.726-3.151,6.302l-33.083,25.994C83.495,474.978,78.769,474.191,75.618,471.04z"/>
	<path style="fill:#183651;" d="M115.003,447.409H7.877c-4.726,0-7.877-3.151-7.877-7.877V252.062c0-4.726,3.151-7.877,7.877-7.877
		h96.098c4.726,0,7.877,3.151,7.877,7.877s-3.151,7.877-7.877,7.877H15.754v171.717h99.249c4.726,0,7.877,3.151,7.877,7.877
		C122.88,444.258,119.729,447.409,115.003,447.409z"/>
	<rect x="206.375" y="55.926" style="fill:#183651;" width="15.754" height="15.754"/>
	<rect x="244.185" y="55.926" style="fill:#183651;" width="15.754" height="15.754"/>
	<rect x="281.994" y="55.926" style="fill:#183651;" width="15.754" height="15.754"/>
	<rect x="206.375" y="244.185" style="fill:#183651;" width="15.754" height="15.754"/>
	<rect x="244.185" y="244.185" style="fill:#183651;" width="15.754" height="15.754"/>
	<rect x="281.994" y="244.185" style="fill:#183651;" width="15.754" height="15.754"/>
	<rect x="206.375" y="432.443" style="fill:#183651;" width="15.754" height="15.754"/>
	<rect x="244.185" y="432.443" style="fill:#183651;" width="15.754" height="15.754"/>
	<rect x="281.994" y="432.443" style="fill:#183651;" width="15.754" height="15.754"/>
</g>
<g>
</g>
<g>
</g>
<g>
</g>
<g>
</g>
<g>
</g>
<g>
</g>
<g>
</g>
<g>
</g>
<g>
</g>
<g>
</g>
<g>
</g>
<g>
</g>
<g>
</g>
<g>
</g>
<g>
</g>
</svg>
