<?xml version="1.0" encoding="iso-8859-1"?>
<!-- Generator: Adobe Illustrator 19.0.0, SVG Export Plug-In . SVG Version: 6.00 Build 0)  -->
<svg version="1.1" id="Layer_1" xmlns="http://www.w3.org/2000/svg" xmlns:xlink="http://www.w3.org/1999/xlink" x="0px" y="0px"
	 viewBox="0 0 480 480" style="enable-background:new 0 0 480 480;" xml:space="preserve">
<path style="fill:#EFD01B;" d="M224,328c52.936,0,96-43.064,96-96s-43.064-96-96-96s-96,43.064-96,96S171.064,328,224,328z M288,256
	c0,13.232-10.768,24-24,24s-24-10.768-24-24s10.768-24,24-24S288,242.768,288,256z M249.344,179.56l13.312,8.872l-64,96
	l-13.312-8.872L249.344,179.56z M184,184c13.232,0,24,10.768,24,24s-10.768,24-24,24s-24-10.768-24-24S170.768,184,184,184z"/>
<path style="fill:#81BAAB;" d="M333.664,34.352l71.984,71.984c1.456,1.448,2.352,3.448,2.352,5.664v318.528
	c9.288-3.312,16-12.112,16-22.528V40c0-13.232-10.768-24-24-24H112c-10.416,0-19.216,6.712-22.528,16H328
	C330.216,32,332.216,32.896,333.664,34.352z"/>
<g>
	<circle style="fill:#EFD01B;" cx="264" cy="256" r="8"/>
	<circle style="fill:#EFD01B;" cx="184" cy="208" r="8"/>
</g>
<g>
	<polygon style="fill:#95D8C6;" points="380.688,104 336,59.312 336,104 	"/>
	<path style="fill:#95D8C6;" d="M368,464c13.232,0,24-10.768,24-24V120h-64c-4.416,0-8-3.576-8-8V48H80c-13.232,0-24,10.768-24,24
		v368c0,13.232,10.768,24,24,24H368z M229.656,413.656c-1.56,1.56-3.608,2.344-5.656,2.344s-4.096-0.784-5.656-2.344l-24-24
		l11.312-11.312L224,396.688l42.344-42.344l11.312,11.312L229.656,413.656z M224,120c61.76,0,112,50.24,112,112s-50.24,112-112,112
		s-112-50.24-112-112S162.24,120,224,120z"/>
</g>
<path d="M400,0H112C92.432,0,76.168,14.144,72.736,32.736C54.144,36.168,40,52.432,40,72v368c0,22.056,17.944,40,40,40h288
	c19.568,0,35.832-14.144,39.264-32.736C425.856,443.832,440,427.568,440,408V40C440,17.944,422.056,0,400,0z M392,440
	c0,13.232-10.768,24-24,24H80c-13.232,0-24-10.768-24-24V72c0-13.232,10.768-24,24-24h240v64c0,4.424,3.584,8,8,8h64V440z
	 M380.688,104H336V59.312L380.688,104z M424,408c0,10.416-6.712,19.216-16,22.528V112c0-2.216-0.896-4.216-2.352-5.664
	l-71.984-71.984C332.216,32.896,330.216,32,328,32H89.472c3.312-9.288,12.112-16,22.528-16h288c13.232,0,24,10.768,24,24V408z"/>
<path d="M224,120c-61.76,0-112,50.24-112,112s50.24,112,112,112s112-50.24,112-112S285.76,120,224,120z M224,328
	c-52.936,0-96-43.064-96-96s43.064-96,96-96s96,43.064,96,96S276.936,328,224,328z"/>
<rect x="166.318" y="223.989" transform="matrix(-0.5547 0.8321 -0.8321 -0.5547 541.2919 174.2789)" width="115.381" height="16.001"/>
<path d="M264,232c-13.232,0-24,10.768-24,24s10.768,24,24,24s24-10.768,24-24S277.232,232,264,232z M264,264c-4.408,0-8-3.584-8-8
	s3.592-8,8-8s8,3.584,8,8S268.408,264,264,264z"/>
<path d="M208,208c0-13.232-10.768-24-24-24s-24,10.768-24,24s10.768,24,24,24S208,221.232,208,208z M184,216c-4.408,0-8-3.584-8-8
	s3.592-8,8-8s8,3.584,8,8S188.408,216,184,216z"/>
<path d="M224,396.688l-18.344-18.344l-11.312,11.312l24,24c1.56,1.56,3.608,2.344,5.656,2.344s4.096-0.784,5.656-2.344l48-48
	l-11.312-11.312L224,396.688z"/>
<g>
</g>
<g>
</g>
<g>
</g>
<g>
</g>
<g>
</g>
<g>
</g>
<g>
</g>
<g>
</g>
<g>
</g>
<g>
</g>
<g>
</g>
<g>
</g>
<g>
</g>
<g>
</g>
<g>
</g>
</svg>
