<?xml version="1.0" encoding="iso-8859-1"?>
<!-- Generator: Adobe Illustrator 19.0.0, SVG Export Plug-In . SVG Version: 6.00 Build 0)  -->
<svg version="1.1" id="Layer_1" xmlns="http://www.w3.org/2000/svg" xmlns:xlink="http://www.w3.org/1999/xlink" x="0px" y="0px"
	 viewBox="0 0 512 512" style="enable-background:new 0 0 512 512;" xml:space="preserve">
<path style="fill:#E0E0E0;" d="M490.622,0H111.585c-4.154,0-7.521,3.368-7.521,7.521v146.455c0,2.271,1.026,4.422,2.793,5.85
	s4.084,1.982,6.305,1.505c7.367-1.579,14.934-2.381,22.493-2.381c58.864,0,106.755,47.89,106.755,106.755
	s-47.89,106.754-106.755,106.754c-7.559,0-15.126-0.8-22.493-2.381c-2.22-0.475-4.538,0.077-6.305,1.505
	c-1.767,1.428-2.793,3.577-2.793,5.849v127.045c0,4.154,3.368,7.521,7.521,7.521h304.192c1.995,0,3.907-0.792,5.319-2.203
	l74.845-74.845c1.41-1.41,2.202-3.323,2.202-5.318V7.521C498.143,3.368,494.777,0,490.622,0z"/>
<path style="fill:#BFBFBF;" d="M135.655,129.139c-6.4,0-21.714,0.001-31.592,1.97v22.867c0,2.271,1.026,4.422,2.793,5.85
	c1.767,1.428,4.084,1.982,6.305,1.505c7.367-1.579,14.934-2.381,22.493-2.381c58.864,0,106.755,47.89,106.755,106.755
	s-47.889,106.755-106.754,106.755c-7.559,0-15.126-0.8-22.493-2.381c-2.22-0.475-4.538,0.077-6.305,1.505
	c-1.767,1.428-2.793,3.577-2.793,5.849v22.484c10.748,2.353,25.952,2.353,31.592,2.353c75.302,0,136.564-61.263,136.564-136.565
	C272.22,190.402,210.957,129.139,135.655,129.139z"/>
<path style="fill:#FFD357;" d="M167.053,148.019v-14.511c0-17.313-14.085-31.399-31.399-31.399
	c-17.313,0-31.398,14.086-31.398,31.399v14.511c-51.991,13.883-90.399,61.381-90.399,117.687
	c0,67.159,54.638,121.797,121.798,121.797c67.159,0,121.797-54.637,121.797-121.797
	C257.452,209.399,219.044,161.902,167.053,148.019z"/>
<circle style="fill:#F9F1EF;" cx="135.656" cy="265.706" r="82.192"/>
<path style="fill:#FF3E48;" d="M135.654,198.598c-0.122,0-0.246,0.003-0.376,0.007c-4.085,0.085-7.364,3.422-7.364,7.52v59.697
	c0,4.154,3.368,7.521,7.521,7.521h59.802c4.103,0,7.439-3.285,7.52-7.369c0.003-0.089,0.004-0.197,0.004-0.27
	C202.761,228.701,172.657,198.598,135.654,198.598z"/>
<path style="fill:#DDDBDB;" d="M135.654,355.419c-49.469,0-89.713-40.245-89.713-89.713c0-49.469,40.245-89.714,89.713-89.714
	c49.469,0,89.713,40.245,89.713,89.714C225.368,315.173,185.122,355.419,135.654,355.419z M135.654,191.034
	c-41.174,0-74.67,33.497-74.67,74.671c0,41.173,33.497,74.67,74.67,74.67c41.174,0,74.67-33.497,74.67-74.67
	C210.325,224.532,176.828,191.034,135.654,191.034z"/>
<g>
	<path style="fill:#504F56;" d="M412.42,363.428H249.931c-4.154,0-7.521-3.368-7.521-7.521s3.368-7.521,7.521-7.521h162.49
		c4.155,0,7.521,3.368,7.521,7.521C419.941,360.061,416.575,363.428,412.42,363.428z"/>
	<path style="fill:#504F56;" d="M412.42,313.238H273.102c-4.155,0-7.521-3.368-7.521-7.521s3.367-7.521,7.521-7.521h139.319
		c4.155,0,7.521,3.368,7.521,7.521C419.941,309.87,416.575,313.238,412.42,313.238z"/>
	<path style="fill:#504F56;" d="M412.42,263.047H280.104c-4.155,0-7.521-3.368-7.521-7.521c0-4.154,3.367-7.521,7.521-7.521H412.42
		c4.155,0,7.521,3.368,7.521,7.521C419.941,259.679,416.575,263.047,412.42,263.047z"/>
	<path style="fill:#504F56;" d="M412.42,212.856H273.102c-4.155,0-7.521-3.368-7.521-7.521s3.367-7.521,7.521-7.521h139.319
		c4.155,0,7.521,3.368,7.521,7.521C419.941,209.489,416.575,212.856,412.42,212.856z"/>
	<path style="fill:#504F56;" d="M412.42,162.667H283.127c-4.155,0-7.521-3.368-7.521-7.521s3.367-7.521,7.521-7.521h129.294
		c4.155,0,7.521,3.368,7.521,7.521S416.575,162.667,412.42,162.667z"/>
	<path style="fill:#504F56;" d="M412.42,112.476H193.995c-4.154,0-7.521-3.368-7.521-7.521s3.368-7.521,7.521-7.521H412.42
		c4.155,0,7.521,3.368,7.521,7.521S416.575,112.476,412.42,112.476z"/>
	<path style="fill:#504F56;" d="M344.594,413.618H193.996c-4.154,0-7.521-3.368-7.521-7.521c0-4.154,3.368-7.521,7.521-7.521
		h150.598c4.155,0,7.521,3.368,7.521,7.521S348.748,413.618,344.594,413.618z"/>
</g>
<path style="fill:#BFBFBF;" d="M490.622,0h-20.057v460.328l25.375-25.376c1.41-1.41,2.202-3.323,2.202-5.318V7.521
	C498.143,3.368,494.777,0,490.622,0z"/>
<path style="fill:#B6BCC1;" d="M497.571,426.755c-1.163-2.811-3.907-4.643-6.949-4.643h-74.846c-4.155,0-7.521,3.368-7.521,7.521
	v74.846c0,3.043,1.832,5.784,4.643,6.949c0.931,0.385,1.907,0.573,2.876,0.573c1.958,0,3.881-0.764,5.321-2.203l74.846-74.846
	C498.091,432.801,498.735,429.566,497.571,426.755z"/>
<path style="fill:#FFAF57;" d="M219.182,177.147l12.576-12.576l6.518,6.517c1.468,1.468,3.394,2.203,5.318,2.203
	c1.924,0,3.85-0.734,5.318-2.203c2.937-2.937,2.937-7.7,0-10.636l-11.833-11.833c-0.001-0.001-0.002-0.002-0.002-0.003
	c-0.001-0.001-0.002-0.001-0.003-0.002l-11.834-11.832c-2.937-2.937-7.7-2.937-10.637,0c-2.937,2.937-2.937,7.7,0,10.636
	l6.517,6.517l-13.542,13.543c-12.026-8.83-25.725-15.506-40.526-19.458h0.001v-14.511c0-17.313-14.085-31.399-31.399-31.399
	c-4.845,0-9.437,1.105-13.539,3.073c10.555,5.065,17.86,15.858,17.86,28.326v10.485c0.001,0,0.001,0,0.002,0
	c-1.436-0.05-2.875-0.085-4.323-0.085c-4.707,0-9.351,0.278-13.921,0.8c60.627,6.931,107.877,58.545,107.877,120.997
	S182.361,379.77,121.733,386.701c4.57,0.522,9.213,0.8,13.921,0.8c67.159,0,121.797-54.637,121.797-121.797
	C257.452,230.848,242.729,199.369,219.182,177.147z M143.5,144.167c-0.026-0.002-0.052-0.003-0.078-0.005
	C143.448,144.164,143.474,144.166,143.5,144.167z M146.923,144.434c-0.002,0-0.004,0-0.006-0.001
	C146.919,144.434,146.921,144.434,146.923,144.434z"/>
<g>
</g>
<g>
</g>
<g>
</g>
<g>
</g>
<g>
</g>
<g>
</g>
<g>
</g>
<g>
</g>
<g>
</g>
<g>
</g>
<g>
</g>
<g>
</g>
<g>
</g>
<g>
</g>
<g>
</g>
</svg>
