<?xml version="1.0" encoding="iso-8859-1"?>
<!-- Generator: Adobe Illustrator 19.0.0, SVG Export Plug-In . SVG Version: 6.00 Build 0)  -->
<svg version="1.1" id="Layer_1" xmlns="http://www.w3.org/2000/svg" xmlns:xlink="http://www.w3.org/1999/xlink" x="0px" y="0px"
	 viewBox="0 0 512 512" style="enable-background:new 0 0 512 512;" xml:space="preserve">
<rect x="129.451" y="9.932" style="fill:#E0E0D3;" width="374.197" height="467.593"/>
<g>
	<path style="fill:#5C6670;" d="M447.63,85.93H185.47c-4.614,0-8.354-3.739-8.354-8.354c0-4.615,3.74-8.354,8.354-8.354h262.16
		c4.614,0,8.354,3.739,8.354,8.354C455.984,82.191,452.244,85.93,447.63,85.93z"/>
	<path style="fill:#5C6670;" d="M447.63,124.367h-98.205c-4.615,0-8.354-3.739-8.354-8.354c0-4.615,3.739-8.354,8.354-8.354h98.205
		c4.614,0,8.354,3.739,8.354,8.354C455.984,120.627,452.244,124.367,447.63,124.367z"/>
	<path style="fill:#5C6670;" d="M324.219,124.367H185.47c-4.614,0-8.354-3.739-8.354-8.354c0-4.615,3.74-8.354,8.354-8.354h138.749
		c4.615,0,8.354,3.739,8.354,8.354C332.573,120.627,328.833,124.367,324.219,124.367z"/>
	<path style="fill:#5C6670;" d="M447.63,162.807H185.47c-4.614,0-8.354-3.739-8.354-8.354c0-4.615,3.74-8.354,8.354-8.354h262.16
		c4.614,0,8.354,3.739,8.354,8.354C455.984,159.067,452.244,162.807,447.63,162.807z"/>
	<path style="fill:#5C6670;" d="M447.63,201.243h-59.847c-4.615,0-8.354-3.739-8.354-8.354c0-4.615,3.739-8.354,8.354-8.354h59.847
		c4.614,0,8.354,3.739,8.354,8.354C455.984,197.503,452.244,201.243,447.63,201.243z"/>
	<path style="fill:#5C6670;" d="M362.577,201.243H185.47c-4.614,0-8.354-3.739-8.354-8.354c0-4.615,3.74-8.354,8.354-8.354h177.107
		c4.615,0,8.354,3.739,8.354,8.354C370.931,197.503,367.191,201.243,362.577,201.243z"/>
	<path style="fill:#5C6670;" d="M447.63,239.683H301.206c-4.615,0-8.354-3.739-8.354-8.354c0-4.615,3.739-8.354,8.354-8.354H447.63
		c4.614,0,8.354,3.739,8.354,8.354C455.984,235.944,452.244,239.683,447.63,239.683z"/>
	<path style="fill:#5C6670;" d="M277.094,239.683h-91.625c-4.614,0-8.354-3.739-8.354-8.354c0-4.615,3.74-8.354,8.354-8.354h91.625
		c4.615,0,8.354,3.739,8.354,8.354C285.448,235.944,281.709,239.683,277.094,239.683z"/>
	<path style="fill:#5C6670;" d="M398.529,278.119H185.47c-4.614,0-8.354-3.739-8.354-8.354s3.74-8.354,8.354-8.354h213.059
		c4.615,0,8.354,3.739,8.354,8.354C406.883,274.38,403.144,278.119,398.529,278.119z"/>
	<path style="fill:#5C6670;" d="M447.63,316.557H290.184c-4.615,0-8.354-3.739-8.354-8.354s3.739-8.354,8.354-8.354H447.63
		c4.614,0,8.354,3.739,8.354,8.354S452.244,316.557,447.63,316.557z"/>
	<path style="fill:#5C6670;" d="M259.499,316.557H185.47c-4.614,0-8.354-3.739-8.354-8.354s3.74-8.354,8.354-8.354h74.029
		c4.615,0,8.354,3.739,8.354,8.354S264.112,316.557,259.499,316.557z"/>
	<path style="fill:#5C6670;" d="M447.63,354.993h-85.052c-4.615,0-8.354-3.739-8.354-8.354s3.739-8.354,8.354-8.354h85.052
		c4.614,0,8.354,3.739,8.354,8.354C455.984,351.254,452.244,354.993,447.63,354.993z"/>
	<path style="fill:#5C6670;" d="M332.561,354.993H185.47c-4.614,0-8.354-3.739-8.354-8.354s3.74-8.354,8.354-8.354h147.091
		c4.615,0,8.354,3.739,8.354,8.354C340.915,351.254,337.176,354.993,332.561,354.993z"/>
	<path style="fill:#5C6670;" d="M447.63,393.431H185.47c-4.614,0-8.354-3.739-8.354-8.354c0-4.615,3.74-8.354,8.354-8.354h262.16
		c4.614,0,8.354,3.739,8.354,8.354C455.984,389.692,452.244,393.431,447.63,393.431z"/>
	<path style="fill:#5C6670;" d="M349.425,431.868H185.47c-4.614,0-8.354-3.739-8.354-8.354c0-4.615,3.74-8.354,8.354-8.354h163.955
		c4.615,0,8.354,3.739,8.354,8.354C357.779,428.127,354.04,431.868,349.425,431.868z"/>
</g>
<rect x="129.451" y="9.932" style="opacity:0.2;enable-background:new    ;" width="283.786" height="467.593"/>
<rect x="8.354" y="34.471" style="fill:#E0E0D3;" width="374.197" height="467.593"/>
<path style="fill:#333E48;" d="M326.534,110.469H64.375c-4.614,0-8.354-3.74-8.354-8.354c0-4.615,3.74-8.354,8.354-8.354h262.16
	c4.615,0,8.354,3.739,8.354,8.354C334.888,106.729,331.149,110.469,326.534,110.469z"/>
<g>
	<path style="fill:#5C6670;" d="M326.534,187.345H64.375c-4.614,0-8.354-3.739-8.354-8.354c0-4.615,3.74-8.354,8.354-8.354h262.16
		c4.615,0,8.354,3.739,8.354,8.354C334.888,183.605,331.149,187.345,326.534,187.345z"/>
	<path style="fill:#5C6670;" d="M326.534,225.782h-59.847c-4.615,0-8.354-3.739-8.354-8.354s3.739-8.354,8.354-8.354h59.847
		c4.615,0,8.354,3.739,8.354,8.354S331.149,225.782,326.534,225.782z"/>
	<path style="fill:#5C6670;" d="M241.482,225.782H64.375c-4.614,0-8.354-3.739-8.354-8.354s3.74-8.354,8.354-8.354h177.107
		c4.614,0,8.354,3.739,8.354,8.354S246.096,225.782,241.482,225.782z"/>
	<path style="fill:#5C6670;" d="M326.534,264.221H180.11c-4.614,0-8.354-3.739-8.354-8.354c0-4.615,3.74-8.354,8.354-8.354h146.424
		c4.615,0,8.354,3.739,8.354,8.354C334.888,260.481,331.149,264.221,326.534,264.221z"/>
	<path style="fill:#5C6670;" d="M156,264.221H64.375c-4.614,0-8.354-3.739-8.354-8.354c0-4.615,3.74-8.354,8.354-8.354H156
		c4.614,0,8.354,3.739,8.354,8.354C164.354,260.481,160.613,264.221,156,264.221z"/>
	<path style="fill:#5C6670;" d="M326.534,341.096H169.091c-4.614,0-8.354-3.74-8.354-8.354c0-4.615,3.74-8.354,8.354-8.354h157.445
		c4.615,0,8.354,3.739,8.354,8.354C334.888,337.355,331.149,341.096,326.534,341.096z"/>
	<path style="fill:#5C6670;" d="M138.404,341.096h-74.03c-4.614,0-8.354-3.74-8.354-8.354c0-4.615,3.74-8.354,8.354-8.354h74.03
		c4.614,0,8.354,3.739,8.354,8.354C146.758,337.355,143.018,341.096,138.404,341.096z"/>
	<path style="fill:#5C6670;" d="M326.534,379.531h-85.052c-4.614,0-8.354-3.739-8.354-8.354s3.74-8.354,8.354-8.354h85.052
		c4.615,0,8.354,3.739,8.354,8.354C334.888,375.792,331.149,379.531,326.534,379.531z"/>
	<path style="fill:#5C6670;" d="M211.467,379.531H64.375c-4.614,0-8.354-3.739-8.354-8.354s3.74-8.354,8.354-8.354h147.092
		c4.614,0,8.354,3.739,8.354,8.354C219.821,375.792,216.081,379.531,211.467,379.531z"/>
	<path style="fill:#5C6670;" d="M326.534,417.969H64.375c-4.614,0-8.354-3.74-8.354-8.354c0-4.615,3.74-8.354,8.354-8.354h262.16
		c4.615,0,8.354,3.739,8.354,8.354C334.888,414.23,331.149,417.969,326.534,417.969z"/>
	<path style="fill:#5C6670;" d="M228.331,456.406H64.375c-4.614,0-8.354-3.739-8.354-8.354c0-4.615,3.74-8.354,8.354-8.354h163.956
		c4.614,0,8.354,3.739,8.354,8.354C236.685,452.665,232.944,456.406,228.331,456.406z"/>
</g>
<path style="fill:#1E252B;" d="M503.646,1.578H129.449c-4.614,0-8.354,3.739-8.354,8.354v16.185H8.354
	C3.74,26.117,0,29.857,0,34.471v467.596c0,4.615,3.74,8.354,8.354,8.354h374.198c4.615,0,8.354-3.739,8.354-8.354v-16.184h112.74
	c4.615,0,8.354-3.739,8.354-8.354V9.932C512,5.318,508.261,1.578,503.646,1.578z M374.198,493.714H16.708V42.825h357.49V493.714z
	 M495.292,469.176H390.906V34.471c0-4.615-3.739-8.354-8.354-8.354H137.803v-7.831h357.489L495.292,469.176L495.292,469.176z"/>
<g>
</g>
<g>
</g>
<g>
</g>
<g>
</g>
<g>
</g>
<g>
</g>
<g>
</g>
<g>
</g>
<g>
</g>
<g>
</g>
<g>
</g>
<g>
</g>
<g>
</g>
<g>
</g>
<g>
</g>
</svg>
