<?xml version="1.0" encoding="iso-8859-1"?>
<!-- Generator: Adobe Illustrator 19.0.0, SVG Export Plug-In . SVG Version: 6.00 Build 0)  -->
<svg version="1.1" id="Capa_1" xmlns="http://www.w3.org/2000/svg" xmlns:xlink="http://www.w3.org/1999/xlink" x="0px" y="0px"
	 viewBox="0 0 512 512" style="enable-background:new 0 0 512 512;" xml:space="preserve">
<path style="fill:#29485A;" d="M0,490.667h512v17.067H0V490.667z"/>
<g>
	<path style="fill:#0071BC;" d="M486.4,4.267L366.933,21.333l25.6,25.6l-102.4,102.4L273.067,268.8L443.733,98.133l25.6,25.6
		L486.4,4.267z"/>
	<path style="fill:#0071BC;" d="M375.467,234.667L204.8,405.333l51.2,51.2l102.4-102.4L375.467,234.667z"/>
</g>
<path style="fill:#2E3192;" d="M375.471,234.666l-68.268,68.268L273.069,268.8l68.268-68.268L375.471,234.666z"/>
<circle style="fill:#F8CF26;" cx="128" cy="217.6" r="102.4"/>
<g>
	<path style="fill:#29485A;" d="M85.333,192H102.4v17.067H85.333V192z"/>
	<path style="fill:#29485A;" d="M153.6,192h17.067v17.067H153.6V192z"/>
	<path style="fill:#29485A;" d="M128,277.291c-24.892,0.043-48.785-9.83-66.372-27.452L53.7,241.92l12.066-12.066l7.927,7.919
		c30.012,29.952,78.601,29.952,108.612,0l7.927-7.919L202.3,241.92l-7.927,7.919C176.785,267.46,152.892,277.333,128,277.291z"/>
</g>
<g>
</g>
<g>
</g>
<g>
</g>
<g>
</g>
<g>
</g>
<g>
</g>
<g>
</g>
<g>
</g>
<g>
</g>
<g>
</g>
<g>
</g>
<g>
</g>
<g>
</g>
<g>
</g>
<g>
</g>
</svg>
