<?xml version="1.0" encoding="iso-8859-1"?>
<!-- Generator: Adobe Illustrator 19.0.0, SVG Export Plug-In . SVG Version: 6.00 Build 0)  -->
<svg version="1.1" id="Capa_1" xmlns="http://www.w3.org/2000/svg" xmlns:xlink="http://www.w3.org/1999/xlink" x="0px" y="0px"
	 viewBox="0 0 512 512" style="enable-background:new 0 0 512 512;" xml:space="preserve">
<g>
	<path style="fill:#303C42;" d="M256,64c-5.896,0-10.667,4.771-10.667,10.667v163.277c-6.259,3.724-10.667,10.262-10.667,18.056
		c0,11.76,9.563,21.333,21.333,21.333c1.842,0,3.491-0.611,5.198-1.052l83.26,83.26c2.083,2.083,4.813,3.125,7.542,3.125
		c2.729,0,5.458-1.042,7.542-3.125c4.167-4.167,4.167-10.917,0-15.083l-83.26-83.26c0.441-1.707,1.052-3.355,1.052-5.198
		c0-7.794-4.408-14.332-10.667-18.056V74.667C266.667,68.771,261.896,64,256,64z"/>
	<path style="fill:#303C42;" d="M256,0C160.313,0,73.354,52.802,29.042,137.813c-1.958,3.75-1.5,8.313,1.146,11.615
		c2.667,3.302,7.063,4.729,11.104,3.604l88.333-23.917c3.229-0.875,5.875-3.229,7.125-6.354c1.229-3.115,0.938-6.646-0.813-9.51
		l-25.396-41.438C151.208,39.625,202.083,21.333,256,21.333c129.396,0,234.667,105.271,234.667,234.667S385.396,490.667,256,490.667
		S21.333,385.396,21.333,256c0-5.896-4.771-10.667-10.667-10.667S0,250.104,0,256c0,141.156,114.833,256,256,256
		s256-114.844,256-256S397.167,0,256,0z"/>
</g>
<path style="fill:#0288D1;" d="M61.021,125.594c9.688-14.521,20.833-27.771,33.208-39.573l16.063,26.229L61.021,125.594z"/>
<linearGradient id="SVGID_1_" gradientUnits="userSpaceOnUse" x1="-45.5642" y1="639.5486" x2="-23.8279" y2="629.4135" gradientTransform="matrix(21.3333 0 0 -21.3333 996.3334 13791.667)">
	<stop  offset="0" style="stop-color:#FFFFFF;stop-opacity:0.2"/>
	<stop  offset="1" style="stop-color:#FFFFFF;stop-opacity:0"/>
</linearGradient>
<path style="fill:url(#SVGID_1_);" d="M256,64c-5.896,0-10.667,4.771-10.667,10.667v163.277
	c-6.259,3.724-10.667,10.262-10.667,18.056c0,11.76,9.563,21.333,21.333,21.333c1.842,0,3.491-0.611,5.198-1.052l83.26,83.26
	c2.083,2.083,4.813,3.125,7.542,3.125c2.729,0,5.458-1.042,7.542-3.125c4.167-4.167,4.167-10.917,0-15.083l-83.26-83.26
	c0.441-1.707,1.052-3.355,1.052-5.198c0-7.794-4.408-14.332-10.667-18.056V74.667C266.667,68.771,261.896,64,256,64z M256,0
	C160.313,0,73.354,52.802,29.042,137.813c-1.958,3.75-1.5,8.313,1.146,11.615c2.667,3.302,7.063,4.729,11.104,3.604l88.333-23.917
	c3.229-0.875,5.875-3.229,7.125-6.354c1.229-3.115,0.938-6.646-0.813-9.51l-25.396-41.438C151.208,39.625,202.083,21.333,256,21.333
	c129.396,0,234.667,105.271,234.667,234.667S385.396,490.667,256,490.667S21.333,385.396,21.333,256
	c0-5.896-4.771-10.667-10.667-10.667S0,250.104,0,256c0,141.156,114.833,256,256,256s256-114.844,256-256S397.167,0,256,0z"/>
<g>
</g>
<g>
</g>
<g>
</g>
<g>
</g>
<g>
</g>
<g>
</g>
<g>
</g>
<g>
</g>
<g>
</g>
<g>
</g>
<g>
</g>
<g>
</g>
<g>
</g>
<g>
</g>
<g>
</g>
</svg>
